<svg width="110" height="33" viewBox="0 0 110 33" fill="none" xmlns="http://www.w3.org/2000/svg">
<path d="M94.9908 10.4248L100.086 18.259H94.9908V10.4248ZM91.9478 5.9375V27.0098H94.9908V21.3021H102.137L106.097 27.0098H109.748L95.5984 5.9375H91.9478Z" fill="#00AB4E"/>
<path d="M4.46608 5.2168C2.86628 6.88612 1.65437 8.88777 0.916726 11.0791C0.310037 12.8033 9.37041e-05 14.6179 7.48587e-05 16.4458C-0.00703716 18.8122 0.492692 21.1528 1.46565 23.31C2.22147 24.9458 3.23444 26.45 4.46608 27.7653V5.2168Z" fill="#00AB4E"/>
<path d="M11.9966 16.4304L25.7037 2.78726C23.71 1.45979 21.453 0.578721 19.0872 0.204354C16.7215 -0.170012 14.3027 -0.0288405 11.9966 0.618206V32.4078C13.408 32.8397 14.8806 33.0377 16.356 32.9941C19.6747 33.0037 22.9218 32.0301 25.6877 30.1962L11.9966 16.4304Z" fill="#00AB4E"/>
<path d="M20.2837 12.7804L31.3048 23.8015C32.4493 21.4444 33.0312 18.8539 33.0049 16.2338C32.9933 14.9179 32.8142 13.6088 32.4719 12.3381C31.738 9.52385 30.279 6.95127 28.2404 4.87695L20.2837 12.7804Z" fill="#00AB4E"/>
<path d="M81.977 16.431L91.2661 27.0098H87.0825L78.1025 16.431L87.0825 5.9375H91.2661L81.977 16.431Z" fill="#00AB4E"/>
<path d="M48.9613 16.431L58.325 27.0098H54.0615L45.0815 16.431L54.0615 5.9375H58.325L48.9613 16.431Z" fill="#00AB4E"/>
<path d="M68.1738 18.8399C67.9242 18.9549 67.6609 19.0373 67.3903 19.085L73.9135 27.0258H70.0337L61.5973 16.431H65.4718C66.4612 16.431 67.41 16.038 68.1097 15.3384C68.8093 14.6387 69.2023 13.6899 69.2023 12.7005C69.2023 11.7111 68.8093 10.7622 68.1097 10.0626C67.41 9.36295 66.4612 8.96991 65.4718 8.96991H61.5973V27.0045H58.6235V5.9375H65.4718C66.3584 5.93679 67.2364 6.11125 68.0554 6.45087C68.8744 6.79048 69.6182 7.28856 70.2442 7.91648C70.8701 8.54441 71.3659 9.28981 71.7029 10.1099C72.0399 10.9299 72.2116 11.8085 72.2081 12.6951C72.2046 13.5726 72.0281 14.4409 71.6889 15.2502C71.3496 16.0594 70.8542 16.7939 70.2309 17.4116C69.6643 18.0397 68.9603 18.5285 68.1738 18.8399Z" fill="#00AB4E"/>
<path d="M78.0964 5.9375H75.1333V27.0098H78.0964V5.9375Z" fill="#00AB4E"/>
<path d="M45.0066 5.9375H42.0435V27.0098H45.0066V5.9375Z" fill="#00AB4E"/>
</svg>
